<svg data-v-423bf9ae="" xmlns="http://www.w3.org/2000/svg" viewBox="0 0 475.48015212684373 60" class="font"><!----><!----><!----><g data-v-423bf9ae="" id="ab84f96a-4898-4a2d-8e2b-840d771622ae" fill="white" transform="matrix(4.966887474060059,0,0,4.966887474060059,-4.172181606292725,-18.62582778930664)"><path d="M4.94 12.05C4.94 12.63 4.83 13.16 4.61 13.64C4.38 14.13 4.03 14.56 3.58 14.91C2.90 15.46 2.02 15.76 1.06 15.81C0.94 15.79 0.84 15.68 0.84 15.54L0.84 13.90C0.84 13.78 0.94 13.65 1.06 13.62L1.12 13.61C1.67 13.55 2.76 13.27 2.76 12.05L2.76 5.96L1.12 5.96C0.97 5.96 0.84 5.85 0.84 5.70L0.84 4.06C0.84 3.91 0.97 3.78 1.12 3.78L4.61 3.78C4.75 3.78 4.89 3.86 4.93 3.98L4.93 3.99C4.94 4.00 4.94 4.02 4.94 4.05ZM14.83 15.54C14.83 15.69 14.70 15.82 14.56 15.82L6.90 15.82C6.75 15.82 6.62 15.69 6.62 15.54L6.62 4.06C6.62 3.91 6.75 3.78 6.90 3.78L14.28 3.78C14.43 3.78 14.56 3.91 14.56 4.06L14.56 5.70C14.56 5.85 14.43 5.96 14.28 5.96L8.81 5.96L8.81 8.71L14 8.71C14.15 8.71 14.28 8.82 14.28 8.97L14.28 10.61C14.28 10.77 14.15 10.89 14 10.89L8.81 10.89L8.81 13.62L14.56 13.62C14.70 13.62 14.83 13.75 14.83 13.90ZM24.29 12.28C24.29 12.38 24.28 13.22 23.74 14.07C23.25 14.88 22.25 15.83 20.19 15.83C18.56 15.83 17.29 15.15 16.60 13.93C16.28 13.34 16.16 12.77 16.11 12.40C16.11 12.38 16.10 12.35 16.10 12.32C16.10 12.18 16.21 12.05 16.35 12.04L18.07 12.04C18.19 12.05 18.27 12.12 18.30 12.24L18.30 12.25C18.30 12.26 18.31 12.28 18.31 12.29C18.34 12.46 18.41 12.70 18.55 12.91C18.84 13.40 19.39 13.65 20.19 13.65C21.04 13.65 21.59 13.41 21.88 12.94C22.08 12.61 22.11 12.26 22.11 12.26C22.11 11.87 22.01 11.41 21.28 11.12C20.75 10.89 20.19 10.88 20.19 10.88C20.09 10.88 19.19 10.86 18.27 10.50C16.86 9.93 16.09 8.81 16.09 7.34C16.09 7.20 16.11 5.89 17.14 4.87C17.86 4.13 18.90 3.75 20.19 3.75C21.01 3.75 22.20 3.93 23.11 4.86C24.00 5.75 24.22 6.89 24.28 7.45L24.28 7.48C24.28 7.64 24.16 7.77 24.01 7.77L22.32 7.77C22.20 7.76 22.11 7.66 22.08 7.55L22.08 7.50C22.04 7.31 21.97 7.03 21.83 6.75C21.63 6.40 21.25 5.94 20.19 5.94C19.50 5.94 19.00 6.09 18.68 6.41C18.30 6.79 18.27 7.34 18.27 7.34C18.27 7.73 18.37 8.18 19.10 8.47C19.63 8.68 20.19 8.69 20.19 8.69C20.29 8.69 21.18 8.71 22.11 9.09C23.52 9.67 24.29 10.81 24.29 12.28ZM33.89 12.05C33.89 13.22 33.42 14.22 32.54 14.92C31.79 15.50 30.83 15.82 29.79 15.82C28.76 15.82 27.79 15.50 27.05 14.92C26.17 14.22 25.69 13.22 25.69 12.05L25.69 4.07C25.69 3.92 25.82 3.78 25.97 3.78L27.61 3.78C27.76 3.78 27.87 3.92 27.87 4.07L27.87 12.05C27.87 13.58 29.60 13.64 29.79 13.64C29.99 13.64 31.71 13.58 31.71 12.05L31.71 4.07C31.71 3.92 31.84 3.78 31.98 3.78L33.63 3.78C33.77 3.78 33.89 3.92 33.89 4.07ZM43.50 12.28C43.50 12.38 43.48 13.22 42.95 14.07C42.46 14.88 41.45 15.83 39.40 15.83C37.77 15.83 36.50 15.15 35.81 13.93C35.49 13.34 35.36 12.77 35.32 12.40C35.32 12.38 35.31 12.35 35.31 12.32C35.31 12.18 35.42 12.05 35.56 12.04L37.28 12.04C37.39 12.05 37.48 12.12 37.51 12.24L37.51 12.25C37.51 12.26 37.52 12.28 37.52 12.29C37.55 12.46 37.62 12.70 37.76 12.91C38.05 13.40 38.60 13.65 39.40 13.65C40.25 13.65 40.80 13.41 41.09 12.94C41.29 12.61 41.31 12.26 41.31 12.26C41.31 11.87 41.22 11.41 40.49 11.12C39.96 10.89 39.40 10.88 39.40 10.88C39.30 10.88 38.40 10.86 37.48 10.50C36.06 9.93 35.29 8.81 35.29 7.34C35.29 7.20 35.32 5.89 36.34 4.87C37.07 4.13 38.11 3.75 39.40 3.75C40.22 3.75 41.41 3.93 42.32 4.86C43.20 5.75 43.43 6.89 43.48 7.45L43.48 7.48C43.48 7.64 43.37 7.77 43.22 7.77L41.52 7.77C41.41 7.76 41.31 7.66 41.29 7.55L41.29 7.50C41.24 7.31 41.17 7.03 41.03 6.75C40.84 6.40 40.46 5.94 39.40 5.94C38.71 5.94 38.21 6.09 37.88 6.41C37.51 6.79 37.48 7.34 37.48 7.34C37.48 7.73 37.58 8.18 38.30 8.47C38.84 8.68 39.40 8.69 39.40 8.69C39.49 8.69 40.39 8.71 41.31 9.09C42.73 9.67 43.50 10.81 43.50 12.28ZM58.87 4.79C58.04 4.13 56.91 3.78 55.58 3.78L51.76 3.78C51.60 3.78 51.48 3.91 51.48 4.06L51.48 5.18L53.63 8.69L51.48 8.69L51.48 15.53C51.48 15.68 51.60 15.81 51.76 15.81L53.40 15.81C53.55 15.81 53.66 15.68 53.66 15.53L53.66 10.89L55.61 10.89C56.92 10.88 58.06 10.54 58.87 9.88C59.70 9.23 60.16 8.30 60.16 7.34C60.16 6.36 59.70 5.43 58.87 4.79ZM54.53 5.96L55.58 5.96C57.15 5.96 57.97 6.65 57.97 7.34C57.97 7.92 57.36 8.51 56.17 8.67ZM69.27 15.54C69.27 15.69 69.15 15.82 69.01 15.82L61.35 15.82C61.19 15.82 61.07 15.69 61.07 15.54L61.07 4.06C61.07 3.91 61.19 3.78 61.35 3.78L68.73 3.78C68.88 3.78 69.01 3.91 69.01 4.06L69.01 5.70C69.01 5.85 68.88 5.96 68.73 5.96L63.25 5.96L63.25 8.71L68.45 8.71C68.60 8.71 68.73 8.82 68.73 8.97L68.73 10.61C68.73 10.77 68.60 10.89 68.45 10.89L63.25 10.89L63.25 13.62L69.01 13.62C69.15 13.62 69.27 13.75 69.27 13.90ZM78.53 15.37L76.30 11.42L75.99 10.89L75.92 10.77C77.95 10.32 79.00 8.82 79.00 7.35C79.00 6.38 78.55 5.46 77.78 4.82C77.00 4.14 75.89 3.79 74.62 3.79L70.53 3.79C70.38 3.79 70.25 3.92 70.25 4.06L70.25 5.17L70.39 5.42L70.39 5.43L72.25 8.71L70.25 8.71L70.25 15.54C70.25 15.69 70.38 15.82 70.53 15.82L72.17 15.82C72.31 15.82 72.44 15.69 72.44 15.54L72.44 10.89L73.49 10.89L73.78 11.42L76.17 15.65L76.20 15.69C76.24 15.76 76.33 15.82 76.43 15.82L78.30 15.82C78.46 15.82 78.57 15.69 78.57 15.53C78.57 15.48 78.57 15.44 78.54 15.40ZM74.47 8.19L73.22 5.98L74.62 5.98C76.13 5.98 76.80 6.69 76.80 7.35C76.80 7.91 76.30 8.53 75.17 8.68C75.04 8.69 74.90 8.71 74.76 8.71ZM88.47 15.54C88.47 15.69 88.34 15.82 88.20 15.82L80.54 15.82C80.39 15.82 80.26 15.69 80.26 15.54L80.26 4.06C80.26 3.91 80.39 3.78 80.54 3.78L87.92 3.78C88.07 3.78 88.20 3.91 88.20 4.06L88.20 5.70C88.20 5.85 88.07 5.96 87.92 5.96L82.45 5.96L82.45 8.71L87.64 8.71C87.79 8.71 87.92 8.82 87.92 8.97L87.92 10.61C87.92 10.77 87.79 10.89 87.64 10.89L82.45 10.89L82.45 13.62L88.20 13.62C88.34 13.62 88.47 13.75 88.47 13.90ZM96.57 5.68C96.57 5.87 96.53 6.03 96.45 6.20L92.48 13.62L96.24 13.62C96.42 13.62 96.57 13.73 96.57 13.89L96.57 15.53C96.57 15.68 96.42 15.81 96.24 15.81L90.29 15.81C90.13 15.81 90.01 15.68 90.01 15.53L90.01 13.93C90.01 13.73 90.05 13.55 90.13 13.37L94.09 5.96L90.29 5.96C90.13 5.96 90.01 5.84 90.01 5.68L90.01 4.05C90.01 3.89 90.13 3.77 90.29 3.77L96.24 3.77C96.42 3.77 96.57 3.89 96.57 4.05Z"></path></g><!----><!----></svg>